<?xml version="1.0" encoding="utf-8"?>
<!-- Generated by IcoMoon.io -->
<!DOCTYPE svg PUBLIC "-//W3C//DTD SVG 1.1//EN" "http://www.w3.org/Graphics/SVG/1.1/DTD/svg11.dtd">
<svg version="1.1" xmlns="http://www.w3.org/2000/svg" xmlns:xlink="http://www.w3.org/1999/xlink" width="32" height="32" viewBox="0 0 32 32">
<path fill="#556080" d="M24.828 8.552l-2.207-5.517h-13.241l-2.207 5.517h-5.076c-1.158 0-2.096 0.938-2.096 2.096v16.203c0 1.168 0.947 2.115 2.115 2.115h27.77c1.168 0 2.115-0.947 2.115-2.115v-16.203c0-1.158-0.938-2.096-2.096-2.096h-5.076z"></path>
<path fill="#424a60" d="M25.379 17.379c0 5.18-4.199 9.379-9.379 9.379s-9.379-4.199-9.379-9.379c0-5.18 4.199-9.379 9.379-9.379s9.379 4.199 9.379 9.379z"></path>
<path fill="#7383bf" d="M22.069 17.379c0 3.352-2.717 6.069-6.069 6.069s-6.069-2.717-6.069-6.069c0-3.352 2.717-6.069 6.069-6.069s6.069 2.717 6.069 6.069z"></path>
<path fill="#38454f" d="M3.31 5.793h2.207v2.759h-2.207v-2.759z"></path>
<path fill="#efce4a" d="M29.793 12.414c0 0.914-0.741 1.655-1.655 1.655s-1.655-0.741-1.655-1.655c0-0.914 0.741-1.655 1.655-1.655s1.655 0.741 1.655 1.655z"></path>
<path fill="#879ad8" d="M17.655 17.379c0 1.983 0.782 3.74 1.986 4.847 1.471-1.107 2.428-2.863 2.428-4.847s-0.956-3.74-2.428-4.847c-1.204 1.107-1.986 2.863-1.986 4.847z"></path>
<path fill="#879ad8" d="M9.931 17.379c0 1.983 0.956 3.74 2.428 4.847 1.204-1.107 1.986-2.863 1.986-4.847s-0.782-3.74-1.986-4.847c-1.471 1.107-2.428 2.863-2.428 4.847z"></path>
<path fill="#556080" d="M16 24c-3.651 0-6.621-2.97-6.621-6.621s2.97-6.621 6.621-6.621 6.621 2.97 6.621 6.621-2.97 6.621-6.621 6.621zM16 11.862c-3.042 0-5.517 2.475-5.517 5.517s2.475 5.517 5.517 5.517 5.517-2.475 5.517-5.517-2.475-5.517-5.517-5.517z"></path>
<path fill="#4674e8" d="M18.759 15.448c0 1.066-0.865 1.931-1.931 1.931s-1.931-0.865-1.931-1.931c0-1.066 0.865-1.931 1.931-1.931s1.931 0.865 1.931 1.931z"></path>
<path fill="#bf4d90" d="M16.552 16.276c0 0.609-0.494 1.103-1.103 1.103s-1.103-0.494-1.103-1.103c0-0.609 0.494-1.103 1.103-1.103s1.103 0.494 1.103 1.103z"></path>
<path fill="#bccef7" d="M14.897 15.172c0 0.609-0.494 1.103-1.103 1.103s-1.103-0.494-1.103-1.103c0-0.609 0.494-1.103 1.103-1.103s1.103 0.494 1.103 1.103z"></path>
</svg>
