<?xml version="1.0" encoding="utf-8"?>
<!-- Generated by IcoMoon.io -->
<!DOCTYPE svg PUBLIC "-//W3C//DTD SVG 1.1//EN" "http://www.w3.org/Graphics/SVG/1.1/DTD/svg11.dtd">
<svg version="1.1" xmlns="http://www.w3.org/2000/svg" xmlns:xlink="http://www.w3.org/1999/xlink" width="32" height="32" viewBox="0 0 32 32">
<path fill="#2488ff" d="M8.916 15.996c-3.906-3.906-3.906-10.262 0-14.168l-1.828-1.828c-2.377 2.377-3.686 5.542-3.686 8.912s1.309 6.535 3.686 8.912l1.828-1.828z"></path>
<path fill="#2488ff" d="M23.084 15.996l1.828 1.828c2.377-2.377 3.686-5.542 3.686-8.912s-1.309-6.535-3.686-8.912l-1.828 1.828c3.906 3.906 3.906 10.262-0 14.168z"></path>
<path fill="#2488ff" d="M10.287 14.624l1.828-1.828c-1.036-1.036-1.606-2.415-1.606-3.885s0.57-2.849 1.606-3.885l-1.828-1.828c-1.524 1.524-2.363 3.553-2.363 5.713s0.839 4.189 2.363 5.713z"></path>
<path fill="#2488ff" d="M21.713 14.624c1.524-1.524 2.363-3.553 2.363-5.713s-0.839-4.189-2.363-5.713l-1.828 1.828c1.036 1.036 1.606 2.415 1.606 3.885s-0.57 2.849-1.606 3.885l1.828 1.828z"></path>
<path fill="#005ece" d="M16 15.803l3.959 13.612h2.692l-5.041-17.335c-0.484 0.247-1.030 0.387-1.61 0.387v-7.109c-1.96 0-3.555 1.595-3.555 3.555 0 1.381 0.792 2.58 1.945 3.168 0.484 0.247 1.030 0.387 1.61 0.387l-0 3.336z"></path>
<path fill="#2488ff" d="M13.184 25.485l5.632-0.001-0.752-2.585-4.128 0 2.064-7.097 0-3.336c-0.579 0-1.126-0.14-1.61-0.387l-5.042 17.335h2.692l1.143-3.93z"></path>
<path fill="#003f8a" d="M5.795 29.415h20.41v2.585h-20.41v-2.585z"></path>
<path fill="#003f8a" d="M16 12.467c0.579 0 1.126-0.14 1.61-0.387 1.153-0.588 1.945-1.787 1.945-3.168 0-1.96-1.595-3.555-3.555-3.555v7.109z"></path>
</svg>
