<?xml version="1.0" encoding="utf-8"?>
<!-- Generated by IcoMoon.io -->
<!DOCTYPE svg PUBLIC "-//W3C//DTD SVG 1.1//EN" "http://www.w3.org/Graphics/SVG/1.1/DTD/svg11.dtd">
<svg version="1.1" xmlns="http://www.w3.org/2000/svg" xmlns:xlink="http://www.w3.org/1999/xlink" width="32" height="32" viewBox="0 0 32 32">
<path fill="#ebebeb" d="M15.996 0.003c8.835 0 15.996 7.161 15.996 15.996s-7.161 15.998-15.996 15.998-15.996-7.162-15.996-15.998 7.161-15.996 15.996-15.996z"></path>
<path fill="#324d5b" d="M22.995 15.001h-5.999v-7c0-0.553-0.448-1-1-1s-1 0.447-1 1v7.998c0 0.553 0.448 1 1 1h6.998c0.553 0 1-0.447 1-1 0-0.55-0.447-0.998-1-0.998z"></path>
<path fill="#e2574c" d="M15.996 0.003c-8.835 0-15.996 7.161-15.996 15.996s7.161 15.998 15.996 15.998 15.996-7.162 15.996-15.998-7.161-15.996-15.996-15.996zM15.996 28.998c-7.166 0-12.997-5.831-12.997-12.998 0-7.166 5.831-12.997 12.997-12.997s12.997 5.831 12.997 12.997c0 7.167-5.831 12.998-12.997 12.998z"></path>
</svg>
