<?xml version="1.0" encoding="utf-8"?>
<!-- Generator: Adobe Illustrator 15.1.0, SVG Export Plug-In  -->
<!DOCTYPE svg PUBLIC "-//W3C//DTD SVG 1.1//EN" "http://www.w3.org/Graphics/SVG/1.1/DTD/svg11.dtd" [
	<!ENTITY ns_flows "http://ns.adobe.com/Flows/1.0/">
]>
<svg version="1.1"
	 xmlns="http://www.w3.org/2000/svg" xmlns:xlink="http://www.w3.org/1999/xlink" xmlns:a="http://ns.adobe.com/AdobeSVGViewerExtensions/3.0/"
	 x="0px" y="0px" width="300px" height="300px" viewBox="0 0 300 300" enable-background="new 0 0 300 300" xml:space="preserve">
<defs>
</defs>
<path fill="#C07AB1" d="M300,150c0,82.843-67.15,150-150,150C67.163,300,0,232.843,0,150S67.163,0,150,0
	C232.85,0,300,67.157,300,150z"/>
<path fill="#AE61A3" d="M279.688,150c0,71.625-58.057,129.688-129.688,129.688S20.313,221.625,20.313,150S78.369,20.313,150,20.313
	S279.688,78.375,279.688,150z"/>
<path fill="#FFFFFF" d="M259.899,149.994c0,60.693-49.194,109.899-109.899,109.899c-60.693,0-109.888-49.206-109.888-109.899
	C40.112,89.313,89.307,40.106,150,40.106C210.705,40.106,259.899,89.313,259.899,149.994z"/>
<path fill="#ECEFF0" d="M150,218.231c-39.563,0-75.562-10.999-102.551-28.998c15.808,41.29,55.701,70.66,102.551,70.66
	s86.743-29.37,102.552-70.66C225.562,207.232,189.563,218.231,150,218.231z"/>
<path fill="#AE61A3" d="M161.707,156.531c1.013,0.543,1.392,1.813,0.842,2.82l0,0c-0.549,1.013-1.819,1.386-2.82,0.842
	l-94.348-51.111c-1.013-0.543-1.392-1.813-0.842-2.82l0,0c0.549-1.013,1.819-1.385,2.82-0.842L161.707,156.531z"/>
<rect x="140.674" y="38.379" fill="#AE61A3" width="18.652" height="21.875"/>
<rect x="140.674" y="239.746" fill="#AE61A3" width="18.652" height="21.875"/>
<rect x="239.746" y="140.674" fill="#AE61A3" width="21.875" height="18.652"/>
<rect x="38.379" y="140.674" fill="#AE61A3" width="21.875" height="18.652"/>
<path fill="#333333" d="M171.875,150c0,12.085-9.79,21.875-21.875,21.875s-21.875-9.79-21.875-21.875s9.79-21.875,21.875-21.875
	S171.875,137.915,171.875,150z"/>
<path fill="#333333" d="M204.736,88.757c2.905-3.931,2.075-9.479-1.855-12.384l0,0c-3.931-2.905-9.473-2.069-12.378,1.862
	l-42.114,56.958c-2.893,3.931-2.063,9.479,1.868,12.39l0,0c3.931,2.899,9.473,2.069,12.378-1.861L204.736,88.757z"/>
<path fill="#333333" d="M189.88,204.486c3.455,3.46,9.07,3.46,12.524,0.006l0,0c3.455-3.461,3.455-9.07,0-12.524l-41.248-41.248
	c-3.455-3.46-9.058-3.46-12.524,0l0,0c-3.455,3.455-3.455,9.064,0,12.518L189.88,204.486z"/>
</svg>
