<!--?xml version="1.0" encoding="utf-8"?-->
<!-- Generator: Adobe Illustrator 18.1.1, SVG Export Plug-In . SVG Version: 6.00 Build 0)  -->

<svg version="1.1" id="_x32_" xmlns="http://www.w3.org/2000/svg" xmlns:xlink="http://www.w3.org/1999/xlink" x="0px" y="0px" viewBox="0 0 512 512" style="width: 256px; height: 256px; opacity: 1;" xml:space="preserve">
<style type="text/css">
	.st0{fill:#ffffff;}
</style>
<g>
	<path class="st0" d="M277.853,266.298c-6.726-22.448-10.492-41.259-10.412-51.234c0-19.649,0-31.604,0-39.028
		c17.8-5.001,30.907-21.202,30.922-40.612c0-23.394-18.966-42.345-42.37-42.345c-23.4,0-42.351,18.951-42.351,42.345
		c0.01,19.41,13.107,35.591,30.908,40.612c0,7.424,0,19.379,0,39.028c0.08,9.974-3.687,28.785-10.412,51.234
		c-20.052,67.623-65.87,171.207-102.178,225.539L151,504.53c13.68-20.536,28.222-46.959,42.266-75.525h125.503
		c14.044,28.566,28.596,55.01,42.241,75.525l19.04-12.694c-24.147-36.188-52.688-94.347-74.852-149.078
		C294.104,315.399,284.559,288.826,277.853,266.298z M236.529,135.424c0.02-10.74,8.713-19.438,19.464-19.459
		c10.776,0.02,19.459,8.718,19.479,19.459c-0.02,10.752-8.713,19.47-19.479,19.5C245.257,154.894,236.548,146.176,236.529,135.424z
		 M255.993,273.063c6.317,21.102,14.99,45.215,24.844,70.115h-49.609C241.107,318.278,249.706,294.186,255.993,273.063z
		 M204.186,406.118c6.123-13.212,12.046-26.623,17.7-40.054h68.227c5.654,13.462,11.632,26.822,17.77,40.054H204.186z"></path>
	<path class="st0" d="M34.4,7.49V7.47C12.584,45.153,0,88.854,0,135.424c0,46.561,12.584,90.301,34.4,127.964l19.803-11.448
		c-19.873-34.345-31.316-74.09-31.316-116.516c0-42.434,11.442-82.131,31.316-116.485L34.4,7.49z"></path>
	<path class="st0" d="M92.812,41.197c-16.062,27.739-25.358,59.942-25.358,94.226c0,34.315,9.287,66.518,25.358,94.257
		l19.802-11.487c-14.124-24.382-22.274-52.609-22.274-82.77c0-30.12,8.136-58.357,22.274-82.778L92.812,41.197z"></path>
	<path class="st0" d="M477.605,7.47l-19.803,11.488c19.868,34.334,31.312,74.031,31.312,116.465
		c0,42.426-11.444,82.172-31.312,116.516l19.803,11.448C499.416,225.725,512,181.984,512,135.424
		C512,88.854,499.416,45.153,477.605,7.47z"></path>
	<path class="st0" d="M399.411,52.665c14.114,24.432,22.248,52.639,22.248,82.758c0,30.161-8.135,58.388-22.264,82.77l19.803,11.487
		c16.072-27.738,25.348-59.942,25.348-94.257c0-34.284-9.276-66.488-25.348-94.247L399.411,52.665z"></path>
	<polygon class="st0" points="399.395,52.665 399.411,52.665 399.395,52.646 	"></polygon>
	<path class="st0" d="M171.072,184.485c-8.404-14.527-13.251-31.196-13.251-49.062c0-17.834,4.847-34.504,13.251-49.031
		l-19.823-11.448c-10.283,17.796-16.316,38.45-16.316,60.479c0,22.07,6.033,42.715,16.316,60.51L171.072,184.485z"></path>
	<path class="st0" d="M360.741,195.934c10.302-17.795,16.34-38.44,16.34-60.51c0-22.029-6.038-42.704-16.34-60.499l-19.803,11.488
		c8.404,14.528,13.257,31.177,13.257,49.011c0,17.865-4.852,34.515-13.257,49.062L360.741,195.934z"></path>
</g>
</svg>
