<?xml version="1.0" encoding="utf-8"?>
<!-- Generated by IcoMoon.io -->
<!DOCTYPE svg PUBLIC "-//W3C//DTD SVG 1.1//EN" "http://www.w3.org/Graphics/SVG/1.1/DTD/svg11.dtd">
<svg version="1.1" xmlns="http://www.w3.org/2000/svg" xmlns:xlink="http://www.w3.org/1999/xlink" width="32" height="32" viewBox="0 0 32 32">
<path fill="#695a69" d="M21.895 1.684h2.526v2.526h-2.526v-2.526z"></path>
<path fill="#f2d057" d="M0.842 13.474v13.474h11.789v-10.105h6.737v10.105h11.789v-13.474h-30.316zM10.105 16.842v6.737h-5.895v-7.579h5.895v0.842zM21.895 22.737v-6.737h5.895v7.579h-5.895v-0.842z"></path>
<path fill="#bf515a" d="M27.789 4.211h-23.579l-4.211 9.263h32z"></path>
<path fill="#95ffff" d="M5.053 22.737h3.368l-3.368-3.368z"></path>
<path fill="#80d7f0" d="M8.421 22.737h0.842v-3.368h-4.211z"></path>
<path fill="#6eb1e2" d="M5.053 16.842h4.211v1.684h-4.211v-1.684z"></path>
<path fill="#695a69" d="M5.053 16h-0.842v7.579h5.895v-7.579h-5.053zM9.263 22.737h-4.211v-3.368h4.211v3.368zM9.263 18.526h-4.211v-1.684h4.211v1.684z"></path>
<path fill="#95ffff" d="M22.737 19.368v3.368h3.368z"></path>
<path fill="#80d7f0" d="M26.947 22.737v-3.368h-4.211l3.368 3.368z"></path>
<path fill="#6eb1e2" d="M22.737 16.842h4.211v1.684h-4.211v-1.684z"></path>
<path fill="#695a69" d="M26.947 23.579h0.842v-7.579h-5.895v7.579h5.053zM22.737 16.842h4.211v1.684h-4.211v-1.684zM22.737 19.368h4.211v3.368h-4.211v-3.368z"></path>
<path fill="#944851" d="M19.368 16.842h-6.737v13.474h6.737v-3.368z"></path>
<path fill="#e9a868" d="M0.842 26.947h11.789v3.368h-11.789v-3.368z"></path>
<path fill="#e9a868" d="M19.368 26.947h11.789v3.368h-11.789v-3.368z"></path>
</svg>
