<?xml version="1.0" encoding="utf-8"?>
<!-- Generated by IcoMoon.io -->
<!DOCTYPE svg PUBLIC "-//W3C//DTD SVG 1.1//EN" "http://www.w3.org/Graphics/SVG/1.1/DTD/svg11.dtd">
<svg version="1.1" xmlns="http://www.w3.org/2000/svg" xmlns:xlink="http://www.w3.org/1999/xlink" width="32" height="32" viewBox="0 0 32 32">
<path fill="#fff" d="M28.53 13.314h-24.735l-1.965 15.594h28.375z"></path>
<path fill="#556080" d="M28.53 13.314l1.674 15.594h-28.375l1.965-15.594h24.735zM29.979 11.701h-27.607l-0.178 1.412-2.194 17.409h32l-0.192-1.785-1.674-15.594-0.154-1.441z"></path>
<path fill="#ebba16" d="M7.358 26.757c-0.138 0-0.276-0.009-0.413-0.025-0.117-0.014-0.236-0.036-0.351-0.067-0.288-0.074-0.46-0.368-0.386-0.655s0.367-0.462 0.655-0.386c0.071 0.018 0.142 0.032 0.213 0.040 0.217 0.027 0.436 0.020 0.653-0.008 0.297-0.035 0.564 0.172 0.601 0.466s-0.172 0.564-0.466 0.601c-0.168 0.022-0.338 0.034-0.505 0.034zM9.859 26.134c-0.216 0-0.419-0.131-0.502-0.344-0.107-0.277 0.031-0.589 0.308-0.695 0.318-0.123 0.639-0.26 0.954-0.408 0.27-0.126 0.589-0.010 0.715 0.258s0.011 0.589-0.258 0.715c-0.338 0.159-0.682 0.305-1.023 0.437-0.063 0.026-0.129 0.037-0.194 0.037zM5.37 25.203c-0.273 0-0.506-0.206-0.534-0.483-0.011-0.106-0.015-0.212-0.015-0.318 0-0.062 0.002-0.125 0.005-0.187 0.012-0.252 0.053-0.507 0.121-0.756 0.077-0.288 0.375-0.459 0.659-0.379 0.287 0.077 0.457 0.372 0.379 0.659-0.047 0.175-0.076 0.353-0.084 0.529-0.002 0.044-0.004 0.089-0.004 0.133 0 0.069 0.003 0.14 0.010 0.209 0.030 0.296-0.186 0.559-0.481 0.59-0.019 0.001-0.038 0.002-0.056 0.002zM12.726 24.666c-0.176 0-0.348-0.086-0.452-0.245-0.162-0.25-0.091-0.582 0.158-0.744 0.288-0.187 0.573-0.387 0.85-0.595 0.239-0.179 0.574-0.13 0.753 0.105 0.179 0.237 0.131 0.574-0.105 0.753-0.297 0.223-0.603 0.438-0.911 0.639-0.091 0.059-0.192 0.087-0.293 0.087zM15.285 22.703c-0.166 0-0.33-0.077-0.436-0.221-0.175-0.24-0.122-0.576 0.118-0.751 0.112-0.081 0.227-0.161 0.345-0.237 0.203-0.132 0.42-0.256 0.645-0.37 0.267-0.133 0.589-0.026 0.722 0.239s0.026 0.589-0.239 0.722c-0.19 0.096-0.373 0.2-0.543 0.31-0.101 0.066-0.2 0.134-0.297 0.205-0.096 0.069-0.207 0.103-0.316 0.103zM6.705 22.449c-0.191 0-0.376-0.102-0.473-0.281-0.142-0.261-0.045-0.587 0.216-0.729 0.279-0.151 0.576-0.245 0.884-0.28 0.156-0.018 0.319-0.017 0.479 0.004 0.294 0.039 0.502 0.309 0.462 0.603-0.039 0.294-0.302 0.501-0.603 0.462-0.072-0.010-0.146-0.010-0.218-0.001-0.17 0.018-0.335 0.071-0.491 0.155-0.082 0.044-0.169 0.065-0.256 0.065zM18.23 21.453c-0.248 0-0.472-0.173-0.525-0.425-0.062-0.291 0.123-0.576 0.413-0.638 0.346-0.074 0.718-0.136 1.107-0.184 0.297-0.044 0.563 0.172 0.6 0.467s-0.173 0.564-0.467 0.6c-0.358 0.045-0.699 0.101-1.014 0.168-0.038 0.009-0.076 0.012-0.113 0.012zM21.435 21.121c-0.287 0-0.525-0.226-0.537-0.516-0.012-0.297 0.218-0.547 0.515-0.559l1.072-0.044c0.296-0.027 0.548 0.216 0.562 0.513 0.013 0.296-0.216 0.548-0.513 0.561l-1.077 0.044c-0.007 0.001-0.015 0.001-0.023 0.001zM24.65 20.883c-0.25 0-0.474-0.175-0.526-0.429-0.060-0.291 0.127-0.575 0.418-0.636 0.311-0.064 0.541-0.154 0.724-0.282 0.235-0.183 0.593-0.153 0.773 0.080 0.182 0.235 0.159 0.559-0.075 0.741-0.030 0.023-0.059 0.045-0.091 0.066-0.293 0.206-0.661 0.355-1.114 0.449-0.036 0.008-0.073 0.011-0.109 0.011zM26.838 18.716c-0.053 0-0.106-0.008-0.159-0.024-0.283-0.088-0.443-0.389-0.354-0.673 0.029-0.092 0.046-0.183 0.052-0.272l0.002-0.062c0-0.123-0.024-0.248-0.070-0.373-0.103-0.279 0.038-0.588 0.317-0.691 0.276-0.103 0.588 0.038 0.691 0.317 0.091 0.245 0.137 0.496 0.137 0.747 0 0.045-0.002 0.090-0.004 0.134-0.012 0.174-0.045 0.347-0.098 0.518-0.071 0.23-0.284 0.378-0.514 0.378zM24.117 16.508c-0.234 0-0.45-0.154-0.517-0.392-0.081-0.286 0.085-0.583 0.371-0.663 0.419-0.118 0.859-0.154 1.283-0.097 0.294 0.040 0.501 0.31 0.461 0.605s-0.304 0.501-0.605 0.461c-0.28-0.037-0.569-0.012-0.847 0.065-0.049 0.015-0.097 0.021-0.146 0.021z"></path>
<path fill="#dd352e" d="M21.963 6.416c-0.282-2.15-1.406-4.937-5.819-4.937s-5.537 2.787-5.819 4.937c-0.154 1.179-0.068 2.376 0.177 3.539 1.349 6.395 4.684 10.229 5.472 11.065 0.092 0.098 0.246 0.098 0.339 0 0.789-0.836 4.123-4.67 5.472-11.065 0.246-1.163 0.332-2.361 0.177-3.539zM16.144 10.578c-1.885 0-3.412-1.528-3.412-3.412s1.528-3.412 3.412-3.412c1.885 0 3.412 1.528 3.412 3.412s-1.528 3.412-3.412 3.412z"></path>
<path fill="#b02721" d="M16.144 3.216c-2.178 0-3.95 1.772-3.95 3.95s1.772 3.95 3.95 3.95 3.95-1.772 3.95-3.95c-0.001-2.178-1.772-3.95-3.95-3.95zM16.144 10.040c-1.585 0-2.875-1.289-2.875-2.875s1.289-2.874 2.875-2.874 2.875 1.289 2.875 2.874-1.29 2.875-2.875 2.875z"></path>
</svg>
