<?xml version="1.0" encoding="utf-8"?>
<!-- Generated by IcoMoon.io -->
<!DOCTYPE svg PUBLIC "-//W3C//DTD SVG 1.1//EN" "http://www.w3.org/Graphics/SVG/1.1/DTD/svg11.dtd">
<svg version="1.1" xmlns="http://www.w3.org/2000/svg" xmlns:xlink="http://www.w3.org/1999/xlink" width="32" height="32" viewBox="0 0 32 32">
<path fill="#000" d="M6.4 9.067h8c0.295 0 0.533-0.239 0.533-0.533s-0.238-0.533-0.533-0.533h-8c-0.295 0-0.533 0.239-0.533 0.533s0.238 0.533 0.533 0.533z"></path>
<path fill="#000" d="M24.533 12.267h-18.133c-0.295 0-0.533 0.239-0.533 0.533s0.238 0.533 0.533 0.533h18.133c0.295 0 0.533-0.239 0.533-0.533s-0.238-0.533-0.533-0.533z"></path>
<path fill="#000" d="M24.533 16.533h-18.133c-0.295 0-0.533 0.239-0.533 0.533s0.238 0.533 0.533 0.533h18.133c0.295 0 0.533-0.239 0.533-0.533s-0.238-0.533-0.533-0.533z"></path>
<path fill="#000" d="M28.8 1.067h-25.6c-1.734 0-3.2 1.466-3.2 3.2v17.6c0 1.734 1.466 3.2 3.2 3.2h15.231l5.174 5.692c0.103 0.113 0.247 0.174 0.395 0.174 0.065 0 0.13-0.012 0.192-0.036 0.206-0.079 0.341-0.277 0.341-0.498v-5.333h4.267c1.734 0 3.2-1.466 3.2-3.2v-17.6c0-1.734-1.466-3.2-3.2-3.2zM30.933 21.867c0 1.156-0.977 2.133-2.133 2.133h-4.8c-0.295 0-0.533 0.239-0.533 0.533v4.487l-4.405-4.846-2.657-3.089c-0.191-0.222-0.528-0.247-0.752-0.057-0.223 0.192-0.249 0.529-0.056 0.752l1.908 2.219h-14.305c-1.156 0-2.133-0.977-2.133-2.133v-17.6c0-1.156 0.977-2.133 2.133-2.133h25.6c1.156 0 2.133 0.977 2.133 2.133v17.6z"></path>
</svg>
