<?xml version="1.0" encoding="utf-8"?>
<!-- Generated by IcoMoon.io -->
<!DOCTYPE svg PUBLIC "-//W3C//DTD SVG 1.1//EN" "http://www.w3.org/Graphics/SVG/1.1/DTD/svg11.dtd">
<svg version="1.1" xmlns="http://www.w3.org/2000/svg" xmlns:xlink="http://www.w3.org/1999/xlink" width="32" height="32" viewBox="0 0 32 32">
<path fill="#556080" d="M23.285 11.863c0 6.43-5.213 11.643-11.643 11.643s-11.643-5.213-11.643-11.643c0-6.43 5.213-11.643 11.643-11.643s11.643 5.213 11.643 11.643z"></path>
<path fill="#8697cb" d="M31.318 27.804l-6.104-6.104-0.823 0.823-3.599-3.476c-0.481 0.612-1.020 1.175-1.613 1.68l3.565 3.443-0.823 0.823 6.104 6.104c0.909 0.909 2.384 0.909 3.293 0s0.909-2.383 0-3.293z"></path>
<path fill="#b0d3f0" d="M20.956 11.863c0 5.144-4.17 9.314-9.314 9.314s-9.314-4.17-9.314-9.314c0-5.144 4.17-9.314 9.314-9.314s9.314 4.17 9.314 9.314z"></path>
</svg>
