<?xml version="1.0" encoding="utf-8"?>
<!-- Generated by IcoMoon.io -->
<!DOCTYPE svg PUBLIC "-//W3C//DTD SVG 1.1//EN" "http://www.w3.org/Graphics/SVG/1.1/DTD/svg11.dtd">
<svg version="1.1" xmlns="http://www.w3.org/2000/svg" xmlns:xlink="http://www.w3.org/1999/xlink" width="32" height="32" viewBox="0 0 32 32">
<path fill="#e7eced" d="M30.904 12.923h-3.108c-1.612 0-2.418-1.949-1.279-3.088l2.198-2.198c0.428-0.428 0.428-1.122 0-1.55l-2.802-2.802c-0.428-0.428-1.122-0.428-1.55 0l-2.198 2.198c-1.14 1.139-3.088 0.332-3.088-1.279v-3.108c0-0.606-0.49-1.096-1.096-1.096h-3.962c-0.605 0-1.095 0.49-1.095 1.096v3.109c0 1.612-1.948 2.418-3.088 1.279l-2.198-2.199c-0.428-0.428-1.122-0.428-1.55 0l-2.802 2.802c-0.428 0.428-0.428 1.122 0 1.55l2.198 2.198c1.14 1.139 0.332 3.088-1.279 3.088h-3.108c-0.606 0-1.096 0.49-1.096 1.096v3.962c0 0.605 0.49 1.095 1.096 1.095h3.108c1.612 0 2.418 1.949 1.279 3.088l-2.198 2.198c-0.428 0.428-0.428 1.122 0 1.55l2.802 2.802c0.428 0.428 1.122 0.428 1.55 0l2.198-2.198c1.14-1.14 3.088-0.332 3.088 1.279v3.108c0 0.606 0.49 1.096 1.096 1.096h3.962c0.605 0 1.095-0.49 1.095-1.096v-3.108c0-1.612 1.948-2.419 3.088-1.279l2.198 2.198c0.428 0.428 1.122 0.428 1.55 0l2.802-2.802c0.428-0.428 0.428-1.122 0-1.55l-2.198-2.198c-1.14-1.139-0.332-3.088 1.279-3.088h3.108c0.606 0 1.096-0.49 1.096-1.096v-3.962c0-0.605-0.49-1.095-1.096-1.095zM16 20.923c-2.719 0-4.923-2.204-4.923-4.923s2.204-4.923 4.923-4.923 4.923 2.204 4.923 4.923-2.204 4.923-4.923 4.923z"></path>
</svg>
