<?xml version="1.0" encoding="utf-8"?>
<!-- Generated by IcoMoon.io -->
<!DOCTYPE svg PUBLIC "-//W3C//DTD SVG 1.1//EN" "http://www.w3.org/Graphics/SVG/1.1/DTD/svg11.dtd">
<svg version="1.1" xmlns="http://www.w3.org/2000/svg" xmlns:xlink="http://www.w3.org/1999/xlink" width="32" height="32" viewBox="0 0 32 32">
<path fill="#7383bf" d="M11.228 15.975c0 2.79-2.262 5.053-5.053 5.053s-5.053-2.262-5.053-5.053c0-2.79 2.262-5.053 5.053-5.053s5.053 2.262 5.053 5.053z"></path>
<path fill="#7383bf" d="M30.877 26.947c0 2.791-2.262 5.053-5.053 5.053s-5.053-2.262-5.053-5.053c0-2.791 2.262-5.053 5.053-5.053s5.053 2.262 5.053 5.053z"></path>
<path fill="#7383bf" d="M30.877 5.053c0 2.791-2.262 5.053-5.053 5.053s-5.053-2.262-5.053-5.053c0-2.791 2.262-5.053 5.053-5.053s5.053 2.262 5.053 5.053z"></path>
<path fill="#424a60" d="M10.676 14.237c0.099 0 0.199-0.026 0.289-0.081l10.615-6.393c0.266-0.16 0.351-0.505 0.191-0.77s-0.505-0.352-0.771-0.191l-10.614 6.394c-0.266 0.16-0.351 0.505-0.191 0.77 0.105 0.175 0.29 0.272 0.481 0.272z"></path>
<path fill="#424a60" d="M21.581 24.236l-10.614-6.443c-0.265-0.161-0.61-0.077-0.771 0.189-0.161 0.265-0.076 0.61 0.189 0.771l10.614 6.443c0.091 0.056 0.191 0.082 0.291 0.082 0.19 0 0.374-0.096 0.481-0.27 0.161-0.266 0.077-0.611-0.189-0.771z"></path>
</svg>
