<?xml version="1.0" encoding="utf-8"?>
<!-- Generator: Adobe Illustrator 15.1.0, SVG Export Plug-In  -->
<!DOCTYPE svg PUBLIC "-//W3C//DTD SVG 1.1//EN" "http://www.w3.org/Graphics/SVG/1.1/DTD/svg11.dtd" [
	<!ENTITY ns_flows "http://ns.adobe.com/Flows/1.0/">
]>
<svg version="1.1"
	 xmlns="http://www.w3.org/2000/svg" xmlns:xlink="http://www.w3.org/1999/xlink" xmlns:a="http://ns.adobe.com/AdobeSVGViewerExtensions/3.0/"
	 x="0px" y="0px" width="300px" height="290px" viewBox="0 -2.336 300 290" enable-background="new 0 -2.336 300 290"
	 xml:space="preserve">
<defs>
</defs>
<polygon fill="#F4D31F" points="149.78,149.383 198.767,91.345 198.291,91.266 150,0 149.743,0.488 149.743,149.341 "/>
<polygon fill="#D4A600" points="149.743,0.488 101.721,91.266 100.854,91.418 149.743,149.341 "/>
<polygon fill="#D4A600" points="149.743,149.817 149.78,149.805 149.743,149.792 "/>
<polygon fill="#D4A600" points="149.743,149.341 149.743,149.426 149.78,149.383 "/>
<polygon fill="#D4A600" points="149.78,149.383 149.743,149.426 149.743,149.792 149.78,149.805 150.036,149.695 "/>
<polygon fill="#D4A600" points="149.512,149.695 149.743,149.792 149.743,149.426 "/>
<polygon fill="#D4A600" points="149.987,149.627 150.036,149.695 149.78,149.805 228.418,182.806 244.958,165.741 300,108.984 
	299.963,108.978 "/>
<polygon fill="#FFE446" points="212.939,93.823 198.767,91.345 149.78,149.383 149.987,149.627 299.963,108.978 "/>
<polygon fill="#E7BE20" points="149.743,149.426 149.743,149.341 100.854,91.418 86.584,93.903 0,108.984 0.22,109.21 
	149.694,149.481 "/>
<polygon fill="#C5901D" points="149.694,149.481 0.22,109.21 54.736,165.43 71.46,182.678 149.743,149.817 149.743,149.792 
	149.512,149.695 "/>
<polygon fill="#FFE446" points="228.125,183.105 228.418,182.806 150.122,149.951 242.627,284.735 "/>
<polygon fill="#D4A600" points="150.122,149.951 149.78,149.805 149.743,149.817 149.743,239.997 150,239.868 242.712,285.327 
	242.627,284.735 "/>
<polygon fill="#D4A600" points="71.46,182.678 71.875,183.105 57.3,285.327 57.715,285.12 149.548,149.902 "/>
<polygon fill="#E7BE20" points="57.715,285.12 149.743,239.997 149.743,149.817 149.548,149.902 "/>
</svg>
