<?xml version="1.0" encoding="utf-8"?>
<!-- Generated by IcoMoon.io -->
<!DOCTYPE svg PUBLIC "-//W3C//DTD SVG 1.1//EN" "http://www.w3.org/Graphics/SVG/1.1/DTD/svg11.dtd">
<svg version="1.1" xmlns="http://www.w3.org/2000/svg" xmlns:xlink="http://www.w3.org/1999/xlink" width="32" height="32" viewBox="0 0 32 32">
<path fill="#000" d="M5.333 13.581h6.933c0.295 0 0.533-0.239 0.533-0.533s-0.238-0.533-0.533-0.533h-6.933c-0.295 0-0.533 0.239-0.533 0.533s0.238 0.533 0.533 0.533z"></path>
<path fill="#000" d="M19.2 15.715h-13.867c-0.295 0-0.533 0.239-0.533 0.533s0.238 0.533 0.533 0.533h13.867c0.295 0 0.533-0.239 0.533-0.533s-0.238-0.533-0.533-0.533z"></path>
<path fill="#000" d="M19.2 18.915h-13.867c-0.295 0-0.533 0.239-0.533 0.533s0.238 0.533 0.533 0.533h13.867c0.295 0 0.533-0.239 0.533-0.533s-0.238-0.533-0.533-0.533z"></path>
<path fill="#000" d="M28.838 1.352l-18.209-0.037c-1.744 0-3.163 1.419-3.163 3.163v2.733l-4.304 0.009c-1.744 0-3.163 1.419-3.163 3.163v11.275c0 1.744 1.419 3.162 3.163 3.162h3.237v5.333c0 0.22 0.135 0.418 0.341 0.498 0.062 0.024 0.127 0.036 0.192 0.036 0.147 0 0.292-0.061 0.395-0.174l5.175-5.693 8.867-0.036c1.744 0 3.163-1.419 3.163-3.162v-0.060l2.805 3.086c0.103 0.113 0.247 0.174 0.395 0.174 0.065 0 0.13-0.012 0.192-0.036 0.206-0.079 0.341-0.277 0.341-0.498v-5.333h0.571c1.744 0 3.163-1.419 3.163-3.162v-11.276c0-1.743-1.418-3.162-3.162-3.163zM23.467 21.619c0 1.156-0.94 2.095-2.098 2.095l-9.104 0.037c-0.149 0.001-0.292 0.064-0.393 0.174l-4.405 4.846v-4.487c0-0.294-0.238-0.533-0.533-0.533h-3.771c-1.156 0-2.096-0.94-2.096-2.095v-11.275c0-1.156 0.94-2.096 2.097-2.096l4.836-0.010c0 0 0 0 0 0s0.001 0 0.001 0l13.37-0.028c1.156 0 2.096 0.94 2.096 2.096v11.276zM30.933 15.79c0 1.156-0.94 2.095-2.096 2.095h-1.104c-0.295 0-0.533 0.239-0.533 0.533v4.487l-2.667-2.933v-9.629c0-1.744-1.419-3.163-3.164-3.163l-12.836 0.026v-2.731c0-1.156 0.94-2.096 2.095-2.096l18.209 0.037c0.001 0 0.001 0 0.001 0 1.156 0 2.096 0.94 2.096 2.096v11.276z"></path>
</svg>
