<?xml version="1.0" encoding="utf-8"?>
<!-- Generated by IcoMoon.io -->
<!DOCTYPE svg PUBLIC "-//W3C//DTD SVG 1.1//EN" "http://www.w3.org/Graphics/SVG/1.1/DTD/svg11.dtd">
<svg version="1.1" xmlns="http://www.w3.org/2000/svg" xmlns:xlink="http://www.w3.org/1999/xlink" width="29" height="32" viewBox="0 0 29 32">
<path fill="#999" d="M5.878 32h-5.224c-0.392 0-0.653-0.261-0.653-0.653v-18.939c0-0.392 0.327-0.653 0.653-0.653h5.224c0.392 0 0.653 0.327 0.653 0.653v18.939c0 0.392-0.327 0.653-0.653 0.653zM1.306 30.694h3.918v-17.633h-3.918v17.633zM16.849 30.694c0 0 0 0 0 0-0.457 0-0.914 0-1.371 0-1.763-0.065-3.853-0.392-5.355-0.588-0.718-0.131-1.371-0.196-1.763-0.196-0.327 0-0.588-0.327-0.588-0.653v-15.478c0-0.261 0.196-0.522 0.392-0.588l0.327-0.131c1.502-0.522 4.571-1.698 6.139-3.396 1.698-1.763 2.482-4.18 2.482-7.053 0.065-0.914 0.588-2.612 2.351-2.612 0.327 0 0.718 0.065 1.175 0.196 0.065 0 0.196 0.065 0.261 0.131 0.718 0.718 3.069 4.963 0.849 11.429h3.722c0 0 0 0 0 0 0.261 0 2.22 0.065 3.004 2.547 0.131 0.327 0.653 1.698-0.522 3.396 0.327 0.588 0.849 1.829 0.261 3.135-0.065 0.131-0.327 0.914-0.849 1.437 0.327 1.11 0.261 2.939-1.306 4.245-0.065 0.784-0.392 2.612-1.959 3.265-0.196 0.065-2.939 0.914-7.249 0.914zM9.143 28.669c0.327 0.065 0.784 0.131 1.241 0.196 1.502 0.196 3.527 0.457 5.224 0.588 4.833 0.196 8.033-0.849 8.033-0.849 1.11-0.457 1.11-2.351 1.11-2.351 0-0.196 0.131-0.392 0.261-0.522 1.829-1.306 0.98-3.265 0.98-3.396-0.131-0.327 0-0.653 0.327-0.849 0.261-0.131 0.588-0.718 0.718-1.045 0.522-1.175-0.327-2.286-0.327-2.286-0.196-0.261-0.196-0.588 0-0.849 1.11-1.306 0.653-2.351 0.653-2.416 0 0 0-0.065-0.065-0.065-0.522-1.698-1.698-1.763-1.763-1.763h-4.702c-0.196 0-0.392-0.131-0.522-0.261-0.131-0.196-0.131-0.392-0.065-0.588 2.286-5.943 0.457-9.992-0.131-10.841-0.261-0.065-0.457-0.065-0.588-0.065-0.914 0-0.98 1.175-0.98 1.306 0 3.2-0.914 5.878-2.808 7.902-1.763 1.894-4.898 3.069-6.531 3.657v14.498zM3.265 29.388c-0.392 0-0.653-0.261-0.653-0.653s0.327-0.653 0.653-0.653 0.653 0.327 0.653 0.653c0 0.392-0.327 0.653-0.653 0.653z"></path>
</svg>
