<svg version="1.1"
	 xmlns="http://www.w3.org/2000/svg" xmlns:xlink="http://www.w3.org/1999/xlink" xmlns:a="http://ns.adobe.com/AdobeSVGViewerExtensions/3.0/"
	 x="0px" y="0px" width="215px" height="300px" viewBox="-0.627 0 215 300" enable-background="new -0.627 0 215 300"
	 xml:space="preserve">
<defs>
</defs>
<path fill="#F0C199" d="M212.195,300c1.001-7.403,1.551-14.887,1.551-22.369c0-71.845-47.84-116.828-106.873-116.828
	C47.852,160.803,0,205.786,0,277.631c0,7.482,0.55,14.966,1.551,22.369H212.195z"/>
<path fill="#6CC1CE" d="M41.81,182.886C16.431,202.911,0,235.626,0,277.631c0,7.482,0.55,14.966,1.551,22.369h210.645
	c1.001-7.403,1.551-14.887,1.551-22.369c0-39.868-14.771-71.424-37.977-91.65c-19.58,8.532-41.077,13.263-63.647,13.263
	C86.976,199.243,63.147,193.365,41.81,182.886z"/>
<path fill="#F0C199" d="M172.729,96.234c0,41.528-29.492,75.189-65.856,75.189c-36.365,0-65.845-33.661-65.845-75.189
	c0-41.517,29.479-75.184,65.845-75.184C143.237,21.051,172.729,54.718,172.729,96.234z"/>
<path fill="#F0C2A2" d="M45.813,106.342c1.44,8.496-0.086,15.894-3.442,16.516c-3.345,0.635-7.215-5.737-8.667-14.221
	c-1.44-8.49,0.098-15.888,3.442-16.522C40.491,91.485,44.373,97.852,45.813,106.342z"/>
<path fill="#F0C2A2" d="M167.835,106.83c-1.44,8.49,0.098,15.881,3.442,16.516s7.214-5.737,8.667-14.227
	c1.44-8.49-0.098-15.887-3.442-16.522C173.157,91.968,169.275,98.346,167.835,106.83z"/>
<path fill="#7F572E" d="M182.361,71.197c-4.419-16.449-11.463-32.715-21.436-45.837C151.44,12.885,135.034,0,119.873,0
	c-7.58,0-12.036,4.682-13.049,5.89C105.811,4.682,101.367,0,93.774,0C78.613,0,62.22,12.885,52.734,25.36
	c-9.973,13.122-17.017,29.388-21.436,45.837c-1.428,5.292-4.956,18.237,3.369,18.799c5.677,0.373,11.401,0.116,17.065,0.22
	c14.441,0.263,22.974,0.22,37.415,0.281c3.931,0.012,13.757-51.361,17.676-51.288c3.918-0.073,13.757,51.3,17.688,51.288
	c14.441-0.062,22.962-0.019,37.415-0.281c5.664-0.104,11.389,0.153,17.053-0.22C187.317,89.435,183.789,76.489,182.361,71.197z"/>
</svg>
