<?xml version="1.0" encoding="utf-8"?>
<!-- Generated by IcoMoon.io -->
<!DOCTYPE svg PUBLIC "-//W3C//DTD SVG 1.1//EN" "http://www.w3.org/Graphics/SVG/1.1/DTD/svg11.dtd">
<svg version="1.1" xmlns="http://www.w3.org/2000/svg" xmlns:xlink="http://www.w3.org/1999/xlink" width="32" height="32" viewBox="0 0 32 32">
<path fill="#1ea6c6" d="M28.554 27.147c0 0.003 0 0.007 0 0.011-3.318 3.009-7.723 4.842-12.554 4.842s-9.237-1.833-12.555-4.842c0-0.004 0-0.007 0-0.011 0-5.005 2.928-9.325 7.165-11.341 1.592 1.588 3.456 2.444 5.39 2.444s3.798-0.856 5.391-2.444c4.236 2.016 7.163 6.336 7.163 11.341z"></path>
<path fill="#fcd09f" d="M16 0c3.835 0 6.944 3.108 6.944 6.943s-3.109 9.081-6.944 9.081-6.944-5.245-6.944-9.081c0-3.835 3.109-6.943 6.944-6.943z"></path>
</svg>
