<?xml version="1.0" ?><svg style="enable-background:new 0 0 256 256;" version="1.1" viewBox="0 0 256 256" xml:space="preserve" xmlns="http://www.w3.org/2000/svg" xmlns:xlink="http://www.w3.org/1999/xlink"><style type="text/css">
	.st0{fill:#00A388;}
	.st1{fill:#EA685E;stroke:#00886F;stroke-width:15;stroke-miterlimit:10;}
	.st2{fill:#E8E8E8;}
	.st3{fill:#FFFFFF;stroke:#00886F;stroke-width:15;stroke-miterlimit:10;}
	.st4{fill:#00886F;}
	.st5{fill:#FFFFFF;}
	.st6{fill:#CCCCCC;}
	.st7{fill:none;stroke:#00A388;stroke-width:4;stroke-miterlimit:10;}
	.st8{fill:#EA685E;}
	.st9{fill:#FFAB80;}
	.st10{fill:#2C3E50;}
	.st11{fill:#4B687F;}
	.st12{fill:none;stroke:#3E5063;stroke-width:4;stroke-miterlimit:10;}
	.st13{fill:#FFD766;}
	.st14{fill:#FFE6D3;}
	.st15{fill:#F09A79;}
	.st16{fill:#C91E01;}
	.st17{fill:#EA3B28;}
	.st18{fill:#0F627F;}
	.st19{fill:#005670;}
	.st20{filter:url(#Adobe_OpacityMaskFilter);}
	.st21{mask:url(#SVGID_2_);}
	.st22{fill:#8C623B;}
	.st23{fill:#E6E6E6;stroke:#005670;stroke-width:16;stroke-miterlimit:10;}
	.st24{opacity:0.6;}
	.st25{fill:#E6E6E6;}
	.st26{fill:#FFEC82;}
	.st27{fill:#FFCF3A;}
	.st28{filter:url(#Adobe_OpacityMaskFilter_1_);}
	.st29{mask:url(#SVGID_1_);}
	.st30{fill:#603813;}
	.st31{fill:#F2F2F2;}
	.st32{fill:#666666;}
</style><g id="Layer_2"><circle class="st2" cx="128" cy="128" r="120"/></g><g id="Layer_1"><g><g><path class="st15" d="M128,66.196846c-33.633583,0-65.214905,21.357758-85.323303,57.431229     c-1.440895,2.584885-1.440895,6.158958,0,8.743858C62.785099,168.445404,94.366417,189.803146,128,189.803146     s65.214905-21.357742,85.323303-57.431213c1.440903-2.5849,1.440903-6.158974,0-8.743858     C193.214905,87.554604,161.633575,66.196846,128,66.196846z"/></g><g><path class="st5" d="M128,82.084892c-33.633583,0-65.214905,15.847862-85.323303,42.615074     c-1.440895,1.918037-1.440895,4.570068,0,6.488113C62.785099,157.955292,94.366417,173.803146,128,173.803146     s65.214905-15.847855,85.323303-42.615067c1.440903-1.918045,1.440903-4.570076,0-6.488113     C193.214905,97.932755,161.633575,82.084892,128,82.084892z"/></g><g><circle class="st18" cx="128" cy="127.944023" r="40.5"/></g><g><circle class="st19" cx="128" cy="127.944023" r="27"/></g><g><circle class="st5" cx="137.877823" cy="120.569023" r="7.375"/></g></g></g></svg>